<svg xmlns="http://www.w3.org/2000/svg" width="356" height="338" viewBox="0 0 356 338" version="1.1"><path d="M 39.936 3.577 L 38.628 5.153 40.509 8.647 L 42.391 12.141 41.284 12.824 C 40.656 13.212, 40.155 16.518, 40.124 20.467 L 40.071 27.426 41.277 28.171 L 42.483 28.917 41.242 30.158 C 39.363 32.037, 39.753 34.787, 42 35.500 C 44.369 36.252, 44.597 37.557, 42.500 38.362 C 40.792 39.017, 40.428 44, 42.088 44 L 43.176 44 42.510 47.943 L 41.844 51.885 43.708 53.050 L 45.573 54.215 45.158 57.776 L 44.742 61.338 46.431 62.573 L 48.120 63.808 47.060 64.463 C 45.603 65.363, 45.726 69.569, 47.255 71.179 C 47.946 71.905, 48.616 73.850, 48.746 75.500 C 48.875 77.150, 49.248 81.023, 49.575 84.108 L 50.169 89.715 47.832 92.236 C 46.548 93.622, 43.320 95.779, 40.661 97.030 L 35.825 99.303 36.257 101.563 L 36.689 103.823 34.878 102.692 L 33.068 101.561 30.284 104.188 C 28.753 105.632, 25.761 107.529, 23.636 108.404 L 19.772 109.993 20.213 112.997 C 20.719 116.444, 20.852 116.345, 17.643 114.883 L 15.193 113.767 8.846 119.021 C 0.602 125.847, 0.597 125.859, 4.320 130.749 C 8.330 136.015, 7.928 136.071, 15.080 129.262 C 18.394 126.105, 29.036 117.763, 38.729 110.723 L 56.351 97.922 57.763 99.334 L 59.175 100.747 57.882 102.817 L 56.589 104.888 58.398 106.887 C 59.393 107.987, 61.548 109.181, 63.186 109.541 L 66.164 110.195 68.543 107.959 L 70.923 105.724 68.433 101.476 C 63.365 92.828, 57.638 74.523, 53.893 55 L 51.878 44.500 51.299 23.250 L 50.719 2 45.982 2 L 41.245 2 39.936 3.577 M 66.694 7.400 C 68.110 10.205, 70.559 14.381, 72.135 16.680 C 75.909 22.187, 75.988 21.966, 68.500 26.924 C 60.733 32.068, 60.868 31.393, 66.987 34.493 L 71.974 37.020 67.487 44.020 C 62.009 52.567, 61.705 51.159, 70 55.640 C 73.850 57.719, 76.998 59.664, 76.997 59.960 C 76.995 60.257, 75.645 63.809, 73.997 67.854 C 70.013 77.628, 69.974 77.500, 77.599 79.564 C 85.692 81.755, 85.750 81.900, 82.572 91.961 C 79.497 101.694, 79.528 101.323, 81.914 100.046 L 83.829 99.021 86.561 90.761 C 88.064 86.217, 89.483 81.984, 89.714 81.354 C 89.961 80.679, 87.332 79.292, 83.317 77.980 C 74.347 75.049, 74.604 75.663, 78.401 66.247 L 81.720 58.013 80.610 57.125 C 80 56.637, 77.169 55.067, 74.321 53.638 C 67.398 50.163, 67.412 50.249, 72.540 42.602 L 77.022 35.920 73.936 34.210 C 72.239 33.269, 70.118 31.990, 69.224 31.366 L 67.598 30.233 73.549 26.470 C 76.822 24.401, 79.655 22.581, 79.844 22.426 C 80.033 22.272, 77.558 17.884, 74.344 12.676 L 68.500 3.207 66.309 2.753 L 64.118 2.300 66.694 7.400 M 272.608 9.046 L 267.923 16.092 273.475 22.296 L 279.027 28.500 276.936 30.223 C 275.786 31.171, 273.710 32.773, 272.323 33.783 L 269.801 35.620 274.515 42.363 C 277.107 46.071, 279.064 49.238, 278.864 49.400 C 278.664 49.562, 276.138 51.001, 273.251 52.597 C 267.091 56.004, 267.167 55.606, 270.973 64.529 C 274.860 73.643, 274.995 73.197, 267.500 76 L 261 78.431 261 79.962 C 261 85.608, 268.835 102.499, 270.624 100.709 C 270.875 100.458, 269.727 96.041, 268.072 90.895 C 266.417 85.748, 265.386 81.262, 265.781 80.925 C 266.177 80.588, 269.200 79.266, 272.500 77.988 C 275.800 76.709, 278.642 75.560, 278.815 75.433 C 278.989 75.306, 277.506 71.277, 275.520 66.480 C 273.534 61.683, 272.042 57.642, 272.205 57.502 C 272.367 57.361, 274.300 56.326, 276.500 55.201 C 278.700 54.077, 281.321 52.541, 282.323 51.788 L 284.147 50.419 279.573 44.207 C 274.033 36.681, 274.047 36.933, 279 33.500 C 284.124 29.949, 284.078 29.647, 277.389 22.888 L 271.778 17.217 275.913 11.129 C 278.187 7.780, 280.310 4.356, 280.631 3.520 L 281.214 2 279.254 2 L 277.293 2 272.608 9.046 M 295.500 2.924 L 292.500 3.611 292.951 5.056 C 293.727 7.539, 293.038 39.860, 291.908 53.985 C 290.358 73.360, 284.395 98.637, 280.295 103.210 L 278.762 104.920 279.420 108.425 C 280.279 113.005, 280.951 113.297, 286.142 111.346 L 290.500 109.707 294.466 101.248 L 298.432 92.789 296.520 91.391 L 294.607 89.993 295.790 88.810 L 296.972 87.628 300.736 90.808 C 302.806 92.558, 310.575 98.727, 318 104.517 C 338.695 120.655, 343.201 124.306, 345.523 126.808 L 347.663 129.117 351.332 124.640 C 355.884 119.085, 356.061 119.926, 349.250 114.732 C 342.400 109.509, 340.676 108.774, 338.920 110.328 L 337.596 111.500 338.850 109.836 L 340.103 108.171 337.412 106.336 C 335.931 105.326, 333.399 103.263, 331.783 101.750 C 330.168 100.237, 327.981 99, 326.923 99 C 325.865 99, 325 98.334, 325 97.520 C 325 96.707, 323.313 95.169, 321.250 94.104 C 319.188 93.039, 315.700 90.503, 313.500 88.468 C 311.300 86.433, 307.536 83.358, 305.136 81.634 L 300.771 78.500 301.454 71 C 303.248 51.312, 303.999 40.154, 304.585 24.500 L 305.220 7.500 304.135 4.750 L 303.050 2 300.775 2.118 C 299.524 2.183, 297.150 2.546, 295.500 2.924 M 199.115 112.250 C 191.549 128.868, 191.398 128.398, 204.272 128.295 C 215.347 128.206, 214.401 128.546, 200.815 129.536 L 192.130 130.169 191.065 135.134 C 190.479 137.864, 190 140.301, 190 140.549 C 190 140.797, 192.137 141.059, 194.750 141.131 L 199.500 141.263 194.250 142.272 C 191.363 142.827, 189 143.738, 189 144.296 L 189 145.311 204.250 144.640 C 225.934 143.688, 225.072 144.168, 222.784 134.327 L 221.568 129.096 218.034 128.152 L 214.500 127.207 217.285 127.103 L 220.070 127 219.070 125.131 C 218.520 124.104, 218.292 123.041, 218.563 122.770 C 219.509 121.824, 209.693 111.884, 205.902 109.950 C 200.985 107.442, 201.362 107.314, 199.115 112.250 M 133.858 112.750 C 130.090 116.733, 126 123.017, 126 124.823 C 126 125.950, 128.391 126.475, 138.390 127.547 L 144.280 128.179 143.674 126.339 C 143.341 125.328, 142.081 121.013, 140.875 116.750 C 138.332 107.765, 138.489 107.855, 133.858 112.750 M 122.665 131.750 C 121.764 133.813, 120.796 136.927, 120.513 138.670 L 119.999 141.841 122.750 142.423 C 125.246 142.952, 150.887 144.970, 155.372 144.991 L 157.245 145 156 143.500 L 154.755 142 146.937 142 C 142.636 142, 138.837 141.545, 138.493 140.988 L 137.868 139.977 145.642 140.619 L 153.417 141.261 151.711 138.881 C 150.772 137.571, 149.011 134.864, 147.796 132.865 L 145.588 129.230 140.544 128.624 C 137.770 128.290, 132.981 128.013, 129.902 128.009 L 124.304 128 122.665 131.750 M 260.099 138.258 C 260.153 141.141, 260.568 145.975, 261.021 149 L 261.844 154.500 261.298 145.028 L 260.753 135.556 268.876 143.503 C 273.344 147.873, 277 152.037, 277 152.756 C 277 153.475, 277.730 154.343, 278.622 154.685 L 280.244 155.308 278.228 156.904 C 277.120 157.782, 275.946 159.400, 275.621 160.500 L 275.028 162.500 279.092 167.250 C 281.413 169.963, 284.009 172, 285.145 172 L 287.135 172 286.570 173.780 L 286.005 175.560 291.936 180.780 C 298.804 186.825, 298.875 186.843, 302.076 183.367 C 303.409 181.919, 305.850 179.895, 307.500 178.871 L 310.500 177.007 307.900 177.004 C 303.888 176.998, 299.016 172.845, 278.750 152.157 L 260 133.016 260.099 138.258 M 124.200 147.200 C 122.499 148.901, 122.708 150.426, 124.917 152.425 L 126.834 154.159 128.917 153.045 C 131.305 151.766, 131.504 150.247, 129.608 147.750 C 128.063 145.714, 125.905 145.495, 124.200 147.200 M 157.579 148.250 C 157.381 148.938, 156.714 153.070, 156.095 157.434 C 154.767 166.795, 152.697 170.839, 147.966 173.311 L 144.500 175.123 139.153 174.624 L 133.805 174.124 130.435 171.815 C 128.581 170.545, 125.989 167.550, 124.675 165.160 L 122.285 160.815 121.628 164.925 C 121.266 167.186, 121.251 170.152, 121.594 171.518 L 122.217 174 120.600 174 L 118.984 174 123.027 181.935 C 125.251 186.299, 127.167 191.329, 127.285 193.111 L 127.500 196.353 132 199.289 L 136.500 202.225 130.500 201.674 L 124.500 201.124 122.361 207.562 C 120.161 214.181, 120.567 215.837, 123.348 211.592 C 124.216 210.267, 126.256 208.520, 127.881 207.709 L 130.835 206.235 131.831 207.231 C 133.031 208.431, 135 207.396, 135 205.563 C 135 204.838, 135.564 203.777, 136.253 203.205 L 137.506 202.165 139.794 203.390 L 142.083 204.615 140.042 206.462 C 136.303 209.846, 137.967 211.942, 153.500 223.406 L 162.500 230.049 165.750 226.358 L 169 222.667 169 225.833 L 169 229 167.655 229 C 164.372 229, 162.210 234.318, 159.633 248.738 L 159.055 251.977 162.146 253.575 C 166.427 255.789, 177.237 257.941, 178.618 256.854 C 179.233 256.370, 181.933 255.822, 184.618 255.635 C 198.561 254.667, 199.691 248.918, 188.874 233.985 L 185.955 229.955 195.228 224.060 C 200.327 220.817, 205.744 217.187, 207.265 215.994 L 210.029 213.824 207.515 210.835 C 204.297 207.011, 204.346 205.614, 207.750 204.091 C 213.776 201.394, 220.675 195.376, 215.435 197.387 L 213.869 197.987 214.561 195.744 C 214.941 194.510, 216.860 190.374, 218.824 186.553 C 220.789 182.731, 222.322 178.681, 222.231 177.553 C 222.140 176.424, 222.474 174.004, 222.973 172.175 C 223.472 170.346, 223.549 167.955, 223.144 166.860 L 222.408 164.870 220.991 167.518 C 220.211 168.974, 217.644 171.297, 215.285 172.679 L 210.997 175.192 206.004 175.153 C 197.112 175.084, 192.766 171.364, 190.464 161.850 C 189.753 158.907, 189.132 157.501, 189.085 158.725 L 189 160.950 185.750 160.307 C 181.328 159.431, 167.286 152.812, 163.056 149.608 C 159.208 146.694, 158.103 146.421, 157.579 148.250 M 193.750 149.080 C 191.834 150.196, 191.372 154.494, 193.057 155.535 C 194.683 156.540, 198.707 155.205, 199.386 153.436 C 200.813 149.718, 197.307 147.008, 193.750 149.080 M 92.362 159.745 L 91.224 161.615 92.524 164.045 L 93.825 166.476 97.162 166.619 C 98.998 166.698, 103.200 167.114, 106.500 167.543 L 112.500 168.324 111.128 166.662 C 110.373 165.748, 108.707 165, 107.427 165 C 106.146 165, 102.906 164.530, 100.226 163.955 L 95.355 162.910 94.427 160.393 L 93.500 157.876 92.362 159.745 M 257.590 163.801 L 255.867 167.622 256.259 172.061 L 256.651 176.500 256.825 171.700 C 256.921 169.061, 257.708 165.531, 258.574 163.857 C 259.439 162.184, 259.960 160.626, 259.730 160.397 C 259.501 160.167, 258.538 161.699, 257.590 163.801 M 251 164.500 L 251 166 244.122 166 L 237.245 166 236 167.500 L 234.755 169 242.378 169 C 246.793 169, 250 169.421, 250 170 C 250 171.733, 251.884 171.086, 253.020 168.962 C 254.181 166.794, 253.489 163, 251.933 163 C 251.420 163, 251 163.675, 251 164.500 M 60.946 173.630 C 59.051 175.626, 55.499 178.551, 53.054 180.130 C 50.609 181.708, 49.079 183, 49.654 183 C 51.170 183, 57.945 177.832, 61.946 173.624 C 63.842 171.631, 65.167 170, 64.892 170 C 64.617 170, 62.842 171.633, 60.946 173.630 M 213.745 207.446 C 214.013 208.851, 214.518 210.006, 214.867 210.014 C 215.215 210.021, 216.486 210.292, 217.691 210.615 L 219.881 211.202 219.124 208.351 L 218.368 205.500 215.812 205.196 L 213.257 204.892 213.745 207.446 M 129.325 211.459 C 127.579 212.219, 125.359 214.049, 124.390 215.527 L 122.630 218.214 121.365 216.484 L 120.100 214.754 119.414 217.487 C 119.037 218.990, 118.979 223.543, 119.286 227.605 L 119.845 234.989 115.172 231.856 C 112.603 230.133, 107.935 226.234, 104.799 223.192 L 99.098 217.660 99.579 219.580 L 100.060 221.500 92.362 225.500 C 88.128 227.700, 82.702 230.736, 80.304 232.246 L 75.944 234.991 77.513 238.025 C 78.376 239.694, 78.794 241.525, 78.442 242.095 L 77.801 243.130 75.901 241.410 C 74.855 240.464, 74 239.085, 74 238.345 C 74 235.984, 65.770 239.694, 64.105 242.804 L 63.142 244.602 64.940 248.617 C 65.928 250.824, 68.068 254.176, 69.696 256.065 C 71.323 257.954, 74.144 261.750, 75.965 264.500 C 77.786 267.250, 81.959 272.258, 85.238 275.629 L 91.202 281.757 90.082 282.449 C 89.466 282.830, 87.838 285.360, 86.464 288.071 L 83.966 293 82.018 293 C 77.085 293, 77.478 300.457, 82.651 304.999 C 87.252 309.038, 89.236 308.795, 94.897 303.500 C 97.543 301.025, 100.414 299, 101.277 299 C 102.140 299, 104.193 297.867, 105.840 296.481 L 108.833 293.963 109.542 297.192 L 110.251 300.421 108.188 301.791 C 107.043 302.551, 106.368 303.796, 106.672 304.588 L 107.220 306.014 110.593 303.052 C 112.449 301.423, 115.680 299.577, 117.773 298.950 L 121.579 297.810 125.561 298.882 C 134.336 301.245, 140.130 307.574, 142.605 317.500 L 143.852 322.500 144.503 320.401 C 144.861 319.246, 147.177 317.023, 149.648 315.461 C 152.119 313.899, 155.162 311.408, 156.410 309.925 C 157.657 308.443, 160.086 306.920, 161.808 306.542 C 163.530 306.164, 165.839 304.650, 166.938 303.177 L 168.937 300.500 168.968 302.250 C 169.100 309.546, 183.675 309.871, 188.051 302.676 L 189.914 299.612 190.457 301.306 C 190.756 302.238, 191.206 303.663, 191.458 304.474 C 191.711 305.284, 191.242 306.325, 190.418 306.786 C 188.031 308.122, 189.752 310.728, 195.570 314.590 C 198.505 316.539, 201.184 319.003, 201.521 320.067 C 202.589 323.432, 203.729 322.169, 204.218 317.078 L 204.691 312.156 207.914 307.134 L 211.136 302.112 215.384 300.056 C 222.170 296.771, 230.763 297.681, 235.880 302.226 L 238.439 304.500 237.020 302.500 C 236.239 301.400, 234.521 299.305, 233.203 297.844 L 230.806 295.188 231.420 293.253 L 232.034 291.318 236.696 292.502 L 241.359 293.685 244.429 297.113 C 246.118 298.998, 248.692 301.579, 250.148 302.848 L 252.796 305.157 255.868 303.568 C 259.981 301.441, 261 299.218, 261 292.369 L 261 286.608 258.464 282.947 L 255.927 279.287 261.921 273.162 C 269.991 264.914, 283 245.503, 283 241.708 C 283 237.937, 272.510 231.819, 271.500 235 C 271.151 236.100, 270.185 237, 269.353 237 L 267.841 237 268.488 234.055 L 269.135 231.110 264.817 228.360 C 262.443 226.848, 257.462 224.104, 253.750 222.263 C 250.037 220.422, 247 218.306, 247 217.561 C 247 216.816, 243.962 219.238, 240.250 222.942 L 233.500 229.677 226.672 232.927 C 218.641 236.749, 218.474 236.678, 219.902 230.020 C 221.827 221.046, 220.830 216.688, 218.182 222.500 C 216.972 225.155, 216.264 225.454, 214.236 224.167 L 212.972 223.364 214.549 220.202 C 215.417 218.463, 216.548 216.779, 217.063 216.461 C 218.879 215.339, 217.970 213.227, 215.465 212.749 L 212.930 212.264 209.461 216.317 C 203.052 223.804, 202.099 238.095, 208.164 235.767 L 209.618 235.210 209.717 240.855 C 209.771 243.960, 209.944 247.400, 210.099 248.500 C 210.255 249.600, 210.075 252.357, 209.699 254.627 L 209.016 258.753 211.838 259.318 C 213.404 259.631, 217.174 262.356, 220.309 265.441 C 223.415 268.498, 226.202 271, 226.502 271 C 227.429 271, 219.075 260.847, 216.446 258.779 C 213.848 256.735, 210.494 251.173, 211.346 250.320 C 211.618 250.049, 212.646 251.103, 213.630 252.663 C 216.397 257.049, 231.985 271.316, 236.860 273.925 C 239.056 275.101, 241.517 278.816, 240.664 279.669 C 240.391 279.943, 239.262 279.262, 238.155 278.155 C 237.049 277.049, 234.146 275.845, 231.704 275.478 L 227.263 274.812 224.361 276.313 C 222.765 277.139, 220.164 279.094, 218.581 280.657 C 216.999 282.221, 215.920 282.829, 216.183 282.009 C 218.297 275.413, 204.279 277.577, 199.996 284.507 C 197.733 288.169, 196.231 289, 191.878 289 C 188.306 289, 181.498 292.315, 180.084 294.743 C 179.521 295.709, 179.047 296.009, 179.030 295.410 C 179.014 294.810, 176.597 293.743, 173.661 293.039 L 168.321 291.758 166.411 292.744 C 165.360 293.286, 163.866 293.504, 163.091 293.228 L 161.681 292.727 162.297 294.332 C 162.636 295.214, 162.514 296.182, 162.028 296.483 C 161.541 296.784, 160.998 296.029, 160.821 294.807 C 160.642 293.563, 158.685 291.310, 156.381 289.694 C 152.629 287.062, 151.061 286.706, 144.560 287.006 C 143.494 287.055, 141.401 286.194, 139.911 285.092 C 135.927 282.147, 132.671 281.643, 127.005 283.095 L 121.948 284.391 116.624 281.696 C 109.906 278.294, 108.526 278.320, 104.930 281.916 C 103.326 283.520, 101.759 284.420, 101.448 283.916 C 101.137 283.412, 101.246 282.993, 101.691 282.985 C 102.136 282.976, 101.887 282.581, 101.139 282.107 L 99.778 281.244 102.809 279.454 L 105.841 277.663 103.420 275.759 C 102.089 274.712, 101 273.160, 101 272.311 L 101 270.767 102.750 271.275 C 103.713 271.554, 106.228 272.530, 108.341 273.443 C 110.453 274.356, 111.930 274.696, 111.623 274.199 C 111.315 273.701, 111.748 272.441, 112.584 271.397 L 114.104 269.500 113.466 271.809 L 112.828 274.118 117.664 270.481 C 120.324 268.481, 124.525 264.694, 127 262.067 C 129.475 259.440, 132.111 257.096, 132.857 256.859 L 134.214 256.429 135.062 249.964 C 135.529 246.409, 136.206 242.042, 136.567 240.260 L 137.224 237.019 134.112 233.475 C 130.492 229.352, 130.389 229, 132.799 229 L 134.598 229 135.864 232.500 C 137.152 236.062, 138.375 236.682, 140.927 235.066 L 142.354 234.163 140.626 224.490 L 138.899 214.817 136.199 212.440 C 133.034 209.652, 133.369 209.700, 129.325 211.459 M 125.667 215.667 C 124.262 217.071, 125.117 219.307, 128.137 222.128 C 132.144 225.871, 132.703 225.226, 130.369 219.552 C 128.611 215.277, 127.212 214.121, 125.667 215.667 M 210 226.365 C 210 227.116, 209.100 228.874, 208 230.273 C 204.585 234.615, 206.959 235.802, 210.826 231.686 C 213.334 229.016, 213.739 225, 211.500 225 C 210.675 225, 210 225.614, 210 226.365 M 262.506 245.264 C 260.859 248.144, 259.377 250.782, 259.213 251.127 C 259.050 251.472, 259.538 251.993, 260.300 252.285 L 261.684 252.816 264.844 247.315 C 267.693 242.354, 268.133 239.974, 266.191 240.014 C 265.811 240.022, 264.153 242.385, 262.506 245.264 M 80 246.611 C 80 246.947, 81.864 249.449, 84.142 252.169 L 88.284 257.116 89.269 256.131 L 90.254 255.146 86.506 250.573 C 83.274 246.629, 80 244.635, 80 246.611 M 252.052 260.085 L 248.770 264.170 249.929 265.329 L 251.089 266.489 254.507 262.495 C 256.387 260.298, 257.942 257.938, 257.962 257.250 C 258.037 254.758, 255.263 256.089, 252.052 260.085 M 91 260.587 C 91 262.005, 97.463 270, 98.611 270 C 101.482 270, 101.008 267.593, 97.412 263.910 C 94.042 260.459, 91 258.882, 91 260.587 M 241.725 270.151 L 237.950 273.234 239.097 274.617 C 240.406 276.194, 243 276.478, 243 275.045 C 243 274.520, 244.149 272.942, 245.554 271.537 C 246.958 270.132, 247.832 268.537, 247.495 267.992 C 246.578 266.508, 245.853 266.779, 241.725 270.151" stroke="none" fill="#e3d4cf" fill-rule="evenodd"/><path d="M 51.328 2.589 C 50.992 3.462, 50.982 13.250, 51.305 24.339 L 51.891 44.500 53.899 55 C 57.624 74.479, 63.359 92.819, 68.433 101.476 L 70.923 105.724 68.543 107.959 L 66.164 110.195 63.186 109.541 C 61.548 109.181, 59.393 107.987, 58.398 106.887 L 56.589 104.888 57.882 102.817 L 59.175 100.747 57.763 99.334 L 56.351 97.922 38.729 110.723 C 29.036 117.763, 18.394 126.105, 15.080 129.262 C 11.765 132.418, 8.591 135, 8.026 135 C 4.377 135, 11.356 143.988, 34 168.449 C 39.225 174.093, 44.233 179.785, 45.129 181.098 L 46.758 183.486 50.336 181.780 C 54.820 179.641, 73.033 163.176, 75.019 159.465 C 75.832 157.946, 77.848 155.297, 79.498 153.578 C 81.149 151.858, 83.010 149.563, 83.633 148.476 C 85.246 145.661, 85.771 146.643, 87.047 154.865 L 88.177 162.146 87.007 172.823 C 85.947 182.508, 83.682 198.317, 82.836 201.941 C 82.300 204.237, 85.729 204.329, 88.857 202.102 C 92.048 199.830, 93 200.196, 93 203.695 C 93 210.489, 103.841 224.258, 115.172 231.856 L 119.845 234.989 119.286 227.605 C 118.979 223.543, 119.037 218.990, 119.414 217.487 L 120.100 214.754 121.365 216.484 L 122.630 218.214 124.393 215.524 C 125.362 214.044, 127.718 212.180, 129.628 211.382 L 133.101 209.931 135.936 212.216 L 138.772 214.500 140.386 223.143 C 142.382 233.833, 142.384 234.639, 140.418 235.393 C 137.698 236.437, 137.165 236.099, 135.864 232.500 L 134.598 229 132.799 229 C 130.389 229, 130.492 229.352, 134.112 233.475 L 137.224 237.019 136.567 240.260 C 136.206 242.042, 135.529 246.409, 135.062 249.964 L 134.214 256.429 132.857 256.859 C 132.111 257.096, 129.475 259.440, 127 262.067 C 124.525 264.694, 120.324 268.481, 117.664 270.481 L 112.828 274.118 113.466 271.809 L 114.104 269.500 112.584 271.397 C 111.748 272.441, 111.315 273.701, 111.623 274.199 C 111.930 274.696, 110.453 274.356, 108.341 273.443 C 106.228 272.530, 103.713 271.554, 102.750 271.275 L 101 270.767 101 272.311 C 101 273.160, 102.089 274.712, 103.420 275.759 L 105.841 277.663 102.809 279.454 L 99.778 281.244 100.974 281.984 C 101.632 282.391, 102.132 283.011, 102.085 283.362 C 102.038 283.713, 102 284.190, 102 284.423 C 102 284.656, 103.315 283.531, 104.923 281.923 C 108.526 278.320, 109.904 278.293, 116.624 281.696 L 121.948 284.391 127.005 283.095 C 132.671 281.643, 135.927 282.147, 139.911 285.092 C 141.401 286.194, 143.494 287.055, 144.560 287.006 C 151.061 286.706, 152.629 287.062, 156.381 289.694 C 158.685 291.310, 160.642 293.563, 160.821 294.807 C 160.998 296.029, 161.541 296.784, 162.028 296.483 C 162.514 296.182, 162.636 295.214, 162.297 294.332 L 161.681 292.727 163.091 293.228 C 163.866 293.504, 165.360 293.286, 166.411 292.744 L 168.321 291.758 173.661 293.039 C 176.597 293.743, 179.014 294.810, 179.030 295.410 C 179.047 296.009, 179.521 295.709, 180.084 294.743 C 181.498 292.315, 188.306 289, 191.878 289 C 196.231 289, 197.733 288.169, 199.996 284.507 C 204.279 277.577, 218.297 275.413, 216.183 282.009 C 215.920 282.829, 216.999 282.221, 218.581 280.657 C 220.164 279.094, 222.765 277.139, 224.361 276.313 L 227.263 274.812 231.704 275.478 C 234.146 275.845, 237.049 277.049, 238.155 278.155 C 239.262 279.262, 240.391 279.943, 240.664 279.669 C 241.517 278.816, 239.056 275.101, 236.860 273.925 C 231.985 271.316, 216.397 257.049, 213.630 252.663 C 212.646 251.103, 211.618 250.049, 211.346 250.320 C 210.494 251.173, 213.848 256.735, 216.446 258.779 C 219.075 260.847, 227.429 271, 226.502 271 C 226.202 271, 223.415 268.498, 220.309 265.441 C 217.174 262.356, 213.404 259.631, 211.838 259.318 L 209.016 258.753 209.699 254.627 C 210.075 252.357, 210.255 249.600, 210.099 248.500 C 209.944 247.400, 209.771 243.960, 209.717 240.855 L 209.618 235.210 208.164 235.767 C 202.099 238.095, 203.052 223.804, 209.461 216.317 L 212.930 212.264 215.465 212.749 C 217.970 213.227, 218.879 215.339, 217.063 216.461 C 216.548 216.779, 215.417 218.463, 214.549 220.202 L 212.972 223.364 214.236 224.167 C 216.264 225.454, 216.972 225.155, 218.182 222.500 C 220.830 216.688, 221.827 221.046, 219.902 230.020 C 218.198 237.965, 227.152 235.308, 238.979 224.359 L 244.965 218.817 248.135 212.376 C 249.879 208.834, 251.800 206.146, 252.403 206.403 C 261.086 210.102, 262.393 209.717, 261.077 203.846 C 256.097 181.624, 255.312 168.291, 258.601 161.802 L 261.201 156.670 260.483 144.723 L 259.766 132.777 278.633 152.037 C 299.102 172.933, 303.882 177, 307.972 177 L 310.645 177 316.485 170.389 C 319.698 166.752, 324.196 161.240, 326.482 158.139 C 328.767 155.037, 334.455 147.999, 339.122 142.497 C 343.789 136.996, 348.371 130.963, 349.305 129.091 L 351.002 125.688 349.178 127.339 L 347.353 128.991 345.386 126.745 C 343.304 124.367, 339.618 121.376, 318 104.517 C 310.575 98.727, 302.806 92.558, 300.736 90.808 L 296.972 87.628 295.790 88.810 L 294.607 89.993 296.520 91.391 L 298.432 92.789 294.466 101.248 L 290.500 109.707 286.142 111.346 C 280.951 113.297, 280.279 113.005, 279.420 108.425 L 278.762 104.920 280.295 103.210 C 287.063 95.660, 292.741 60.574, 293.195 23.500 C 293.461 1.705, 293.624 2.158, 285.500 2.124 L 281.500 2.107 276.680 9.703 L 271.859 17.300 277.430 22.929 C 284.075 29.644, 284.121 29.951, 279 33.500 C 274.047 36.933, 274.033 36.681, 279.573 44.207 L 284.147 50.419 282.323 51.788 C 281.321 52.541, 278.700 54.077, 276.500 55.201 C 274.300 56.326, 272.367 57.361, 272.205 57.502 C 272.042 57.642, 273.534 61.683, 275.520 66.480 C 277.506 71.277, 278.989 75.306, 278.815 75.433 C 278.642 75.560, 275.800 76.709, 272.500 77.988 C 269.200 79.266, 266.177 80.588, 265.781 80.925 C 265.386 81.262, 266.417 85.748, 268.072 90.895 C 269.727 96.041, 270.875 100.458, 270.624 100.709 C 268.835 102.499, 261 85.608, 261 79.962 L 261 78.431 267.500 76 C 274.995 73.197, 274.860 73.643, 270.973 64.529 C 267.167 55.606, 267.091 56.004, 273.251 52.597 C 276.138 51.001, 278.664 49.562, 278.864 49.400 C 279.064 49.238, 277.107 46.071, 274.515 42.363 L 269.801 35.620 272.323 33.783 C 273.710 32.773, 275.786 31.171, 276.936 30.223 L 279.027 28.500 273.467 22.288 L 267.907 16.075 272.467 9.288 L 277.026 2.500 271.263 2.181 C 268.093 2.006, 262.800 2.367, 259.500 2.983 C 223.472 9.714, 200.263 17.492, 184.226 28.208 L 178.951 31.733 174.254 30.855 L 169.557 29.978 167.529 27.537 C 160.939 19.607, 125.630 9.823, 89.843 6.009 C 84.705 5.461, 78.025 4.605, 75 4.107 C 67.811 2.924, 67.832 2.567, 74.467 13.033 C 77.632 18.026, 80.059 22.246, 79.861 22.410 C 79.662 22.573, 76.822 24.401, 73.549 26.470 L 67.598 30.233 69.224 31.366 C 70.118 31.990, 72.239 33.269, 73.936 34.210 L 77.022 35.920 72.540 42.602 C 67.412 50.249, 67.398 50.163, 74.321 53.638 C 77.169 55.067, 80 56.637, 80.610 57.125 L 81.720 58.013 78.401 66.247 C 74.604 75.663, 74.347 75.049, 83.317 77.980 C 87.332 79.292, 89.961 80.679, 89.714 81.354 C 89.483 81.984, 88.064 86.217, 86.561 90.761 L 83.829 99.021 81.914 100.046 C 79.528 101.323, 79.497 101.694, 82.572 91.961 C 85.750 81.900, 85.692 81.755, 77.599 79.564 C 69.974 77.500, 70.013 77.628, 73.997 67.854 C 75.645 63.809, 76.995 60.257, 76.997 59.960 C 76.998 59.664, 73.850 57.719, 70 55.640 C 61.705 51.159, 62.009 52.567, 67.487 44.020 L 71.974 37.020 66.987 34.493 C 60.868 31.393, 60.733 32.068, 68.500 26.924 C 75.988 21.966, 75.909 22.187, 72.135 16.680 C 70.559 14.381, 68.104 10.194, 66.681 7.375 C 63.786 1.643, 62.748 1, 56.387 1 L 51.937 1 51.328 2.589 M 199.115 112.250 C 191.549 128.868, 191.398 128.398, 204.272 128.295 C 215.347 128.206, 214.401 128.546, 200.815 129.536 L 192.130 130.169 191.065 135.134 C 190.479 137.864, 190 140.301, 190 140.549 C 190 140.797, 192.137 141.059, 194.750 141.131 L 199.500 141.263 194.250 142.272 C 191.363 142.827, 189 143.738, 189 144.296 L 189 145.311 204.250 144.640 C 225.934 143.688, 225.072 144.168, 222.784 134.327 L 221.568 129.096 218.034 128.152 L 214.500 127.207 217.285 127.103 L 220.070 127 219.070 125.131 C 218.520 124.104, 218.292 123.041, 218.563 122.770 C 219.509 121.824, 209.693 111.884, 205.902 109.950 C 200.985 107.442, 201.362 107.314, 199.115 112.250 M 133.858 112.750 C 130.090 116.733, 126 123.017, 126 124.823 C 126 125.950, 128.391 126.475, 138.390 127.547 L 144.280 128.179 143.674 126.339 C 143.341 125.328, 142.081 121.013, 140.875 116.750 C 138.332 107.765, 138.489 107.855, 133.858 112.750 M 122.665 131.750 C 121.764 133.813, 120.796 136.927, 120.513 138.670 L 119.999 141.841 122.750 142.423 C 125.246 142.952, 150.887 144.970, 155.372 144.991 L 157.245 145 156 143.500 L 154.755 142 146.937 142 C 142.636 142, 138.837 141.545, 138.493 140.988 L 137.868 139.977 145.642 140.619 L 153.417 141.261 151.711 138.881 C 150.772 137.571, 149.011 134.864, 147.796 132.865 L 145.588 129.230 140.544 128.624 C 137.770 128.290, 132.981 128.013, 129.902 128.009 L 124.304 128 122.665 131.750 M 124.200 147.200 C 122.499 148.901, 122.708 150.426, 124.917 152.425 L 126.834 154.159 128.917 153.045 C 131.305 151.766, 131.504 150.247, 129.608 147.750 C 128.063 145.714, 125.905 145.495, 124.200 147.200 M 157.579 148.250 C 157.381 148.938, 156.714 153.070, 156.095 157.434 C 154.767 166.795, 152.697 170.839, 147.966 173.311 L 144.500 175.123 139.153 174.624 L 133.805 174.124 130.435 171.815 C 128.581 170.545, 125.989 167.550, 124.675 165.160 L 122.285 160.815 121.628 164.925 C 121.266 167.186, 121.251 170.152, 121.594 171.518 L 122.217 174 120.600 174 L 118.984 174 123.027 181.935 C 125.251 186.299, 127.167 191.329, 127.285 193.111 L 127.500 196.353 132 199.289 L 136.500 202.225 130.500 201.674 L 124.500 201.124 122.361 207.562 C 120.161 214.181, 120.567 215.837, 123.348 211.592 C 124.216 210.267, 126.256 208.520, 127.881 207.709 L 130.835 206.235 131.831 207.231 C 133.031 208.431, 135 207.396, 135 205.563 C 135 204.838, 135.564 203.777, 136.253 203.205 L 137.506 202.165 139.794 203.390 L 142.083 204.615 140.042 206.462 C 136.303 209.846, 137.967 211.942, 153.500 223.406 L 162.500 230.049 165.750 226.358 L 169 222.667 169 225.833 L 169 229 167.655 229 C 164.372 229, 162.210 234.318, 159.633 248.738 L 159.055 251.977 162.146 253.575 C 166.427 255.789, 177.237 257.941, 178.618 256.854 C 179.233 256.370, 181.933 255.822, 184.618 255.635 C 198.561 254.667, 199.691 248.918, 188.874 233.985 L 185.955 229.955 195.228 224.060 C 200.327 220.817, 205.744 217.187, 207.265 215.994 L 210.029 213.824 207.515 210.835 C 204.297 207.011, 204.346 205.614, 207.750 204.091 C 213.776 201.394, 220.675 195.376, 215.435 197.387 L 213.869 197.987 214.561 195.744 C 214.941 194.510, 216.860 190.374, 218.824 186.553 C 220.789 182.731, 222.322 178.681, 222.231 177.553 C 222.140 176.424, 222.474 174.004, 222.973 172.175 C 223.472 170.346, 223.549 167.955, 223.144 166.860 L 222.408 164.870 220.991 167.518 C 220.211 168.974, 217.644 171.297, 215.285 172.679 L 210.997 175.192 206.004 175.153 C 197.112 175.084, 192.766 171.364, 190.464 161.850 C 189.753 158.907, 189.132 157.501, 189.085 158.725 L 189 160.950 185.750 160.307 C 181.328 159.431, 167.286 152.812, 163.056 149.608 C 159.208 146.694, 158.103 146.421, 157.579 148.250 M 193.750 149.080 C 191.834 150.196, 191.372 154.494, 193.057 155.535 C 194.683 156.540, 198.707 155.205, 199.386 153.436 C 200.813 149.718, 197.307 147.008, 193.750 149.080 M 92.362 159.745 L 91.224 161.615 92.524 164.045 L 93.825 166.476 97.162 166.619 C 98.998 166.698, 103.200 167.114, 106.500 167.543 L 112.500 168.324 111.128 166.662 C 110.373 165.748, 108.707 165, 107.427 165 C 106.146 165, 102.906 164.530, 100.226 163.955 L 95.355 162.910 94.427 160.393 L 93.500 157.876 92.362 159.745 M 251 164.500 L 251 166 244.122 166 L 237.245 166 236 167.500 L 234.755 169 242.378 169 C 246.793 169, 250 169.421, 250 170 C 250 171.733, 251.884 171.086, 253.020 168.962 C 254.181 166.794, 253.489 163, 251.933 163 C 251.420 163, 251 163.675, 251 164.500 M 213.745 207.446 C 214.013 208.851, 214.518 210.006, 214.867 210.014 C 215.215 210.021, 216.486 210.292, 217.691 210.615 L 219.881 211.202 219.124 208.351 L 218.368 205.500 215.812 205.196 L 213.257 204.892 213.745 207.446 M 125.667 215.667 C 124.262 217.071, 125.117 219.307, 128.137 222.128 C 132.144 225.871, 132.703 225.226, 130.369 219.552 C 128.611 215.277, 127.212 214.121, 125.667 215.667 M 210 226.365 C 210 227.116, 209.100 228.874, 208 230.273 C 204.585 234.615, 206.959 235.802, 210.826 231.686 C 213.334 229.016, 213.739 225, 211.500 225 C 210.675 225, 210 225.614, 210 226.365 M 268.607 233.582 C 267.661 236.046, 267.881 237, 269.393 237 C 270.956 237, 272.307 234.306, 271.444 232.910 C 270.583 231.516, 269.281 231.825, 268.607 233.582 M 74.347 237.537 C 73.632 239.402, 76.986 243.414, 78.224 242.176 C 79.206 241.194, 77.173 236, 75.808 236 C 75.329 236, 74.672 236.692, 74.347 237.537 M 262.506 245.264 C 260.859 248.144, 259.377 250.782, 259.213 251.127 C 259.050 251.472, 259.538 251.993, 260.300 252.285 L 261.684 252.816 264.844 247.315 C 267.693 242.354, 268.133 239.974, 266.191 240.014 C 265.811 240.022, 264.153 242.385, 262.506 245.264 M 80 246.611 C 80 246.947, 81.864 249.449, 84.142 252.169 L 88.284 257.116 89.269 256.131 L 90.254 255.146 86.506 250.573 C 83.274 246.629, 80 244.635, 80 246.611 M 252.052 260.085 L 248.770 264.170 249.929 265.329 L 251.089 266.489 254.507 262.495 C 256.387 260.298, 257.942 257.938, 257.962 257.250 C 258.037 254.758, 255.263 256.089, 252.052 260.085 M 91 260.587 C 91 262.005, 97.463 270, 98.611 270 C 101.482 270, 101.008 267.593, 97.412 263.910 C 94.042 260.459, 91 258.882, 91 260.587 M 241.725 270.151 L 237.950 273.234 239.097 274.617 C 240.406 276.194, 243 276.478, 243 275.045 C 243 274.520, 244.149 272.942, 245.554 271.537 C 246.958 270.132, 247.832 268.537, 247.495 267.992 C 246.578 266.508, 245.853 266.779, 241.725 270.151 M 231.434 293.207 C 231.105 294.246, 231.410 295.789, 232.113 296.636 L 233.391 298.176 234.193 296.008 L 234.995 293.840 238.247 294.514 C 240.036 294.884, 242.850 296.646, 244.500 298.430 C 246.150 300.213, 248.394 302.308, 249.486 303.086 C 250.578 303.864, 249.076 302.036, 246.148 299.025 L 240.824 293.550 236.429 292.434 L 232.034 291.318 231.434 293.207 M 105.694 296.574 C 104.151 297.908, 102.105 299, 101.147 299 C 100.189 299, 97.627 300.912, 95.453 303.249 L 91.500 307.497 95.004 304.291 C 100.537 299.228, 110.162 296.693, 107.500 301 C 107.160 301.550, 107.373 302, 107.972 302 C 109.621 302, 110.292 299.366, 109.344 296.607 L 108.500 294.148 105.694 296.574 M 115.020 300.250 C 112.598 301.488, 109.268 304.194, 107.621 306.265 L 104.625 310.031 104.195 315.977 L 103.765 321.924 106.449 326.504 C 107.926 329.023, 111.016 332.462, 113.317 334.147 L 117.500 337.209 125.500 336.691 L 133.500 336.173 137.750 331.364 C 140.088 328.719, 142 326.179, 142 325.719 C 142 323.924, 148.262 317.221, 151.793 315.236 C 153.841 314.086, 156.603 311.987, 157.932 310.572 C 159.261 309.157, 160.885 308, 161.539 308 C 162.194 308, 163.886 307.091, 165.299 305.979 L 167.868 303.959 170.388 306.479 L 172.909 309 176.889 309 C 179.079 309, 182.095 308.534, 183.593 307.964 L 186.317 306.929 189.249 310.485 C 190.861 312.441, 193.476 314.712, 195.061 315.532 C 196.646 316.351, 198.883 318.029, 200.033 319.261 L 202.124 321.500 201.468 319.785 C 201.108 318.842, 198.432 316.490, 195.523 314.559 C 189.749 310.726, 188.036 308.119, 190.418 306.786 C 191.242 306.325, 191.711 305.284, 191.458 304.474 C 191.206 303.663, 190.756 302.238, 190.457 301.306 L 189.914 299.612 188.051 302.676 C 183.675 309.871, 169.100 309.546, 168.968 302.250 L 168.937 300.500 166.938 303.177 C 165.839 304.650, 163.530 306.164, 161.808 306.542 C 160.086 306.920, 157.657 308.443, 156.410 309.925 C 155.162 311.408, 152.119 313.899, 149.648 315.461 C 147.177 317.023, 144.861 319.246, 144.503 320.401 L 143.852 322.500 142.605 317.500 C 138.875 302.541, 126.132 294.573, 115.020 300.250 M 215.304 300.078 L 211.109 302.155 207.973 307.042 L 204.837 311.929 204.092 317.423 L 203.346 322.917 204.613 325.709 C 205.310 327.244, 207.152 329.986, 208.707 331.803 L 211.535 335.106 215.517 336.029 C 217.708 336.537, 221.697 336.963, 224.382 336.976 L 229.264 337 232.525 334.984 C 236.297 332.653, 240.489 327.467, 242.510 322.631 L 243.917 319.263 243.317 315.382 C 241.203 301.690, 227.344 294.119, 215.304 300.078" stroke="none" fill="#8e2c37" fill-rule="evenodd"/></svg>